<?xml version="1.0" encoding="UTF-8"?>
<svg width="50px" height="46px" viewBox="0 0 50 46" version="1.1" xmlns="http://www.w3.org/2000/svg" xmlns:xlink="http://www.w3.org/1999/xlink">
    <!-- Generator: Sketch 49.3 (51167) - http://www.bohemiancoding.com/sketch -->
    <title>Group 2</title>
    <desc>Created with Sketch.</desc>
    <defs></defs>
    <g id="Page-1" stroke="none" stroke-width="1" fill="none" fill-rule="evenodd">
        <g id="Group-2" fill-rule="nonzero">
            <g id="money">
                <path d="M47.6342105,29.514425 L2.26832359,29.514425 C1.02076023,29.514425 0,28.4936647 0,27.2461014 L0,2.29483431 C0,1.04727096 1.02076023,0.0265107212 2.26832359,0.0265107212 L47.634308,0.0265107212 C48.8818713,0.0265107212 49.9026316,1.04727096 49.9026316,2.29483431 L49.9026316,27.2461014 C49.9025341,28.4936647 48.8817739,29.514425 47.6342105,29.514425 Z" id="Shape" fill="#DCB585"></path>
                <path d="M41.9634503,20.4412281 C39.3548733,20.4412281 36.9731969,21.6887914 35.6121832,23.7302144 C34.4780702,23.1632554 33.2305068,22.7095517 31.7561404,22.7095517 C27.7866472,22.7095517 24.4975634,25.6583821 23.9305068,29.514425 L47.6342105,29.514425 C48.7683236,29.514425 49.6756335,28.7205653 49.9025341,27.5863548 C49.4488304,23.6168616 46.0463938,20.4412281 41.9634503,20.4412281 Z" id="Shape" fill="#D99746"></path>
                <path d="M43.0976608,27.2461014 L6.80487329,27.2461014 C6.80487329,24.7509747 4.76345029,22.7095517 2.26832359,22.7095517 L2.26832359,6.83148148 C4.76345029,6.83148148 6.80487329,4.79005848 6.80487329,2.29493177 L43.0976608,2.29493177 C43.0976608,4.79005848 45.1390838,6.83148148 47.6342105,6.83148148 L47.6342105,22.7095517 C45.1390838,22.7095517 43.0976608,24.7509747 43.0976608,27.2461014 Z" id="Shape" fill="#EADCCB"></path>
                <g id="Group" transform="translate(9.064327, 4.483431)">
                    <path d="M32.8991228,15.9577973 C30.2905458,15.9577973 27.9088694,17.2053606 26.5478558,19.2467836 C25.4137427,18.6798246 24.1661793,18.2261209 22.6918129,18.2261209 C19.5161793,18.2261209 16.7942495,20.0407407 15.5466862,22.7626706 L34.0333333,22.7626706 C34.0333333,20.2675439 35.9614035,18.3394737 38.4565302,18.2261209 C36.9820663,16.8651072 35.0540936,15.9577973 32.8991228,15.9577973 Z" id="Shape" fill="#D99746"></path>
                    <ellipse id="Oval" fill="#DCB585" cx="15.8869396" cy="10.287037" rx="9.07319688" ry="10.2073099"></ellipse>
                    <circle id="Oval" fill="#DCB585" cx="2.27719298" cy="10.287037" r="2.26832359"></circle>
                    <circle id="Oval" fill="#DCB585" cx="29.4966862" cy="10.287037" r="2.26832359"></circle>
                </g>
                <circle id="Oval" fill="#FFCA5D" cx="29.4878168" cy="30.6486355" r="7.93908382"></circle>
                <circle id="Oval" fill="#F6B545" cx="39.6952242" cy="28.3803119" r="7.93908382"></circle>
                <path d="M39.6952242,20.4412281 C35.2720273,20.4412281 31.7561404,23.957115 31.7561404,28.3803119 C31.7561404,32.8035088 35.2720273,36.3193957 39.6952242,36.3193957 C44.1184211,36.3193957 47.634308,32.8035088 47.634308,28.3803119 C47.634308,23.957115 44.1184211,20.4412281 39.6952242,20.4412281 Z M39.6952242,34.0510721 C36.5195906,34.0510721 34.0244639,31.5559454 34.0244639,28.3803119 C34.0244639,25.2046784 36.5195906,22.7095517 39.6952242,22.7095517 C42.8708577,22.7095517 45.3659844,25.2046784 45.3659844,28.3803119 C45.3659844,31.5559454 42.8708577,34.0510721 39.6952242,34.0510721 Z" id="Shape" fill="#FFCB5B"></path>
                <path d="M39.6952242,36.2059454 C44.1184211,36.3193957 47.634308,32.6900585 47.634308,28.3803119 L47.5208577,28.3803119 C46.9538012,28.3803119 46.5000975,28.8340156 46.3867446,29.4010721 C46.1599415,30.9888889 45.3659844,32.4632554 44.2318713,33.4840156 C43.3245614,34.3913255 42.0769981,34.9583821 40.7159844,35.1851852 C40.1488304,35.1851852 39.6952242,35.6388889 39.6952242,36.2059454 Z" id="Shape" fill="#F6B545"></path>
                <path d="M39.6952242,20.5546784 C35.2720273,20.4412281 31.7561404,24.0705653 31.7561404,28.3803119 L31.8695906,28.3803119 C32.4366472,28.3803119 32.8903509,27.9266082 33.0037037,27.3595517 C33.2305068,25.7717349 34.0244639,24.2973684 35.158577,23.2766082 C36.0658869,22.3692982 37.3134503,21.8022417 38.6744639,21.5753411 C39.2415205,21.5754386 39.6952242,21.1217349 39.6952242,20.5546784 Z" id="Shape" fill="#FFE27A"></path>
                <path d="M34.8183236,29.1741715 C34.8183236,25.998538 37.3134503,23.5034113 40.4890838,23.5034113 C41.8500975,23.5034113 43.0976608,23.957115 44.1183236,24.864425 C42.9842105,23.5034113 41.5098441,22.7095517 39.6952242,22.7095517 C36.5195906,22.7095517 34.0244639,25.2046784 34.0244639,28.3803119 C34.0244639,30.1949318 34.8183236,31.6692982 36.0658869,32.6900585 C35.2720273,31.7827485 34.8183236,30.5351852 34.8183236,29.1741715 Z" id="Shape" fill="#F19920"></path>
                <path d="M43.0976608,31.8961988 C42.9842105,31.8961988 42.8708577,31.8961988 42.7574074,31.7827485 C42.5306043,31.5559454 42.5306043,31.215692 42.7574074,30.9888889 C43.4379142,30.3083821 43.7781676,29.2876218 43.7781676,28.3803119 C43.7781676,28.0400585 44.0049708,27.8132554 44.3452242,27.8132554 C44.6854776,27.8132554 44.9122807,28.0400585 44.9122807,28.3803119 C44.9122807,29.6278752 44.458577,30.8754386 43.6647173,31.7827485 C43.4379142,31.8961988 43.2110136,31.8961988 43.0976608,31.8961988 Z" id="Shape" fill="#FFCB5B"></path>
                <g id="Group" transform="translate(31.773879, 22.709552)" fill="#F19920">
                    <path d="M12.1176413,12.3621832 C11.3237817,9.52680312 9.28226121,7.25847953 6.67368421,6.23781676 C6.21998051,3.62923977 4.51881092,1.36101365 2.36393762,0 C1.00292398,1.47436647 0.0956140351,3.40243665 0.0956140351,5.55730994 C0.0956140351,9.98050682 3.61150097,13.4963938 8.03469786,13.4963938 C9.50916179,13.6097466 10.870078,13.1561404 12.1176413,12.3621832 Z" id="Shape"></path>
                </g>
                <g id="ruble-currency-sign" transform="translate(36.647173, 25.243665)" fill="#F19920">
                    <path d="M0.146239813,5.40926301 L1.16965369,5.40926301 L1.16965369,6.28657235 C1.16965369,6.32925751 1.18331048,6.36420008 1.21078798,6.39151354 C1.23818981,6.41900354 1.27322079,6.43274854 1.31589351,6.43274854 L2.0788323,6.43274854 C2.11842815,6.43274854 2.1526899,6.41900354 2.18163018,6.39151354 C2.21057045,6.36420008 2.22499645,6.3292449 2.22499645,6.28657235 L2.22499645,5.40926301 L4.53219842,5.40926301 C4.57478287,5.40926301 4.60982645,5.39569455 4.63729134,5.36820455 C4.66478145,5.34073977 4.67842562,5.30577198 4.67842562,5.26308682 L4.67842562,4.67826857 C4.67842562,4.63583561 4.66478145,4.60064084 4.63729134,4.57332738 C4.60990211,4.54583738 4.57478287,4.53209238 4.53219842,4.53209238 L2.22492079,4.53209238 L2.22492079,3.9929605 L3.77828849,3.9929605 C4.38742138,3.9929605 4.88457622,3.80735255 5.26997998,3.43560703 C5.65523242,3.06425242 5.84795322,2.5845519 5.84795322,1.99648025 C5.84795322,1.40879951 5.65523242,0.929086378 5.26997998,0.557353468 C4.88465188,0.185986251 4.38740877,0 3.77828849,0 L1.31581785,0 C1.27313252,0 1.2381772,0.0137323905 1.21071232,0.0410584604 C1.18331048,0.0685358515 1.16957803,0.103718009 1.16957803,0.146163579 L1.16957803,3.01995317 L0.146239813,3.01995317 C0.103567094,3.01995317 0.0685991709,3.03439172 0.0411342822,3.06331927 C0.0137450545,3.09225944 0,3.12652106 0,3.16610414 L0,3.8467717 C0,3.88945686 0.0136567835,3.92442464 0.0411342822,3.95188943 C0.068611781,3.97937943 0.103491433,3.99294789 0.146239813,3.99294789 L1.16965369,3.99294789 L1.16965369,4.53207977 L0.146239813,4.53207977 C0.103567094,4.53207977 0.0685991709,4.54582477 0.0411342822,4.57331477 C0.0137450545,4.60062823 0,4.63574734 0,4.67825596 L0,5.26307421 C0,5.30575937 0.0136567835,5.34072716 0.0411342822,5.36819194 C0.0685991709,5.39569455 0.103554484,5.40926301 0.146239813,5.40926301 Z M2.22492079,0.973234311 L3.6869154,0.973234311 C4.00973503,0.973234311 4.27010924,1.06762085 4.46815151,1.25645698 C4.66609291,1.44530573 4.76510774,1.69209784 4.76510774,1.99655591 C4.76510774,2.3011653 4.66609291,2.54803307 4.46815151,2.73665483 C4.27010924,2.9256549 4.00972242,3.02004144 3.6869154,3.02004144 L2.22492079,3.02004144 L2.22492079,0.973234311 Z" id="Shape"></path>
                </g>
                <path d="M43.8915205,35.0717349 C43.6647173,34.2778752 43.4378168,33.5973684 42.9842105,32.9168616 C42.0769006,33.5973684 40.9427875,34.0509747 39.6952242,34.0509747 C36.5195906,34.0509747 34.0244639,31.555848 34.0244639,28.3802144 C34.0244639,26.6789474 34.7049708,25.2045809 35.8390838,24.1838207 C35.2720273,23.6167641 34.7049708,23.1630604 34.0244639,22.822807 C32.6634503,24.2971735 31.7561404,26.2252437 31.7561404,28.380117 C31.7561404,32.8033138 35.2720273,36.3192008 39.6952242,36.3192008 C41.2830409,36.3192982 42.6439571,35.865692 43.8915205,35.0717349 Z" id="Shape" fill="#F6B545"></path>
                <path d="M43.5512671,34.0510721 C42.7574074,34.6181287 41.7366472,34.9583821 40.7158869,35.1851852 C40.1488304,35.2986355 39.6951267,35.7522417 39.6951267,36.3192982 C41.2829435,36.3192982 42.6439571,35.8655945 43.8915205,35.0717349 C43.7781676,34.7314815 43.6647173,34.3913255 43.5512671,34.0510721 Z" id="Shape" fill="#F19920"></path>
                <path d="M34.0244639,22.8230019 C32.6634503,24.2973684 31.7561404,26.2254386 31.7561404,28.3803119 L31.8695906,28.3803119 C32.4366472,28.3803119 32.8903509,27.9266082 33.0037037,27.3595517 C33.2305068,25.7717349 34.0244639,24.4107212 35.0451267,23.3900585 C34.7049708,23.2766082 34.3647173,23.0498051 34.0244639,22.8230019 Z" id="Shape" fill="#FFCB5B"></path>
                <circle id="Oval" fill="#F6B545" cx="29.4878168" cy="30.6486355" r="7.93908382"></circle>
                <g id="ruble-currency-sign" transform="translate(26.413255, 27.582846)" fill="#F19920">
                    <path d="M0.146239813,5.40926301 L1.16965369,5.40926301 L1.16965369,6.28657235 C1.16965369,6.32925751 1.18331048,6.36420008 1.21078798,6.39151354 C1.23818981,6.41900354 1.27322079,6.43274854 1.31589351,6.43274854 L2.0788323,6.43274854 C2.11842815,6.43274854 2.1526899,6.41900354 2.18163018,6.39151354 C2.21057045,6.36420008 2.22499645,6.3292449 2.22499645,6.28657235 L2.22499645,5.40926301 L4.53219842,5.40926301 C4.57478287,5.40926301 4.60982645,5.39569455 4.63729134,5.36820455 C4.66478145,5.34073977 4.67842562,5.30577198 4.67842562,5.26308682 L4.67842562,4.67826857 C4.67842562,4.63583561 4.66478145,4.60064084 4.63729134,4.57332738 C4.60990211,4.54583738 4.57478287,4.53209238 4.53219842,4.53209238 L2.22492079,4.53209238 L2.22492079,3.9929605 L3.77828849,3.9929605 C4.38742138,3.9929605 4.88457622,3.80735255 5.26997998,3.43560703 C5.65523242,3.06425242 5.84795322,2.5845519 5.84795322,1.99648025 C5.84795322,1.40879951 5.65523242,0.929086378 5.26997998,0.557353468 C4.88465188,0.185986251 4.38740877,0 3.77828849,0 L1.31581785,0 C1.27313252,0 1.2381772,0.0137323905 1.21071232,0.0410584604 C1.18331048,0.0685358515 1.16957803,0.103718009 1.16957803,0.146163579 L1.16957803,3.01995317 L0.146239813,3.01995317 C0.103567094,3.01995317 0.0685991709,3.03439172 0.0411342822,3.06331927 C0.0137450545,3.09225944 0,3.12652106 0,3.16610414 L0,3.8467717 C0,3.88945686 0.0136567835,3.92442464 0.0411342822,3.95188943 C0.068611781,3.97937943 0.103491433,3.99294789 0.146239813,3.99294789 L1.16965369,3.99294789 L1.16965369,4.53207977 L0.146239813,4.53207977 C0.103567094,4.53207977 0.0685991709,4.54582477 0.0411342822,4.57331477 C0.0137450545,4.60062823 0,4.63574734 0,4.67825596 L0,5.26307421 C0,5.30575937 0.0136567835,5.34072716 0.0411342822,5.36819194 C0.0685991709,5.39569455 0.103554484,5.40926301 0.146239813,5.40926301 Z M2.22492079,0.973234311 L3.6869154,0.973234311 C4.00973503,0.973234311 4.27010924,1.06762085 4.46815151,1.25645698 C4.66609291,1.44530573 4.76510774,1.69209784 4.76510774,1.99655591 C4.76510774,2.3011653 4.66609291,2.54803307 4.46815151,2.73665483 C4.27010924,2.9256549 4.00972242,3.02004144 3.6869154,3.02004144 L2.22492079,3.02004144 L2.22492079,0.973234311 Z" id="Shape"></path>
                </g>
                <path d="M28.3537037,36.3192982 C28.3537037,37.1131579 28.467154,37.7936647 28.6939571,38.5876218 C28.9207602,38.5876218 29.2610136,38.5876218 29.4878168,38.5876218 C33.9110136,38.5876218 37.4269006,35.0717349 37.4269006,30.648538 C37.4269006,29.8546784 37.3134503,29.1741715 37.0866472,28.3802144 C36.8598441,28.3802144 36.5195906,28.3802144 36.2927875,28.3802144 C31.8695906,28.3803119 28.3537037,31.8961988 28.3537037,36.3192982 Z" id="Shape" fill="#F19920"></path>
                <path d="M29.4878168,22.7095517 C25.0646199,22.7095517 21.5487329,26.2254386 21.5487329,30.6486355 C21.5487329,35.0718324 25.0646199,38.5877193 29.4878168,38.5877193 C33.9110136,38.5877193 37.4269006,35.0717349 37.4269006,30.6486355 C37.4269006,26.2255361 33.9110136,22.7095517 29.4878168,22.7095517 Z M29.4878168,36.3192982 C26.3121832,36.3192982 23.8170565,33.8241715 23.8170565,30.648538 C23.8170565,27.4729045 26.3121832,24.9777778 29.4878168,24.9777778 C32.6634503,24.9777778 35.158577,27.4729045 35.158577,30.648538 C35.158577,33.8241715 32.6634503,36.3192982 29.4878168,36.3192982 Z" id="Shape" fill="#FFCB5B"></path>
                <path d="M29.4878168,38.4741715 C33.9110136,38.5876218 37.4269006,34.9583821 37.4269006,30.6486355 L37.3134503,30.6486355 C36.7463938,30.6486355 36.2926901,31.1023392 36.1793372,31.6693957 C35.9525341,33.2572125 35.158577,34.7315789 34.0244639,35.7523392 C33.117154,36.6596491 31.8695906,37.2267057 30.508577,37.4536062 C29.9415205,37.4535088 29.4878168,37.907115 29.4878168,38.4741715 Z" id="Shape" fill="#F6B545"></path>
                <path d="M29.4878168,22.8230019 C25.0646199,22.7095517 21.5487329,26.3388889 21.5487329,30.6486355 L21.6621832,30.6486355 C22.2292398,30.6486355 22.6829435,30.1949318 22.7962963,29.6278752 C23.0230994,28.0400585 23.8170565,26.565692 24.9511696,25.5449318 C25.8584795,24.6376218 27.1060429,24.0705653 28.4670565,23.8436647 C29.0342105,23.8436647 29.4878168,23.3900585 29.4878168,22.8230019 Z" id="Shape" fill="#FFE27A"></path>
                <path d="M24.6110136,31.4424951 C24.6110136,28.2668616 27.1061404,25.7717349 30.2817739,25.7717349 C31.6427875,25.7717349 32.8903509,26.2254386 33.9110136,27.1327485 C32.7769006,25.7717349 31.3024366,24.9778752 29.4878168,24.9778752 C26.3121832,24.9778752 23.8170565,27.4730019 23.8170565,30.6486355 C23.8170565,32.4632554 24.6109162,33.9376218 25.8584795,34.9583821 C25.0647173,34.0510721 24.6110136,32.8035088 24.6110136,31.4424951 Z" id="Shape" fill="#F19920"></path>
                <path d="M32.8903509,34.164425 C32.7769006,34.164425 32.6635478,34.164425 32.5500975,34.0509747 C32.3232943,33.8241715 32.3232943,33.4839181 32.5500975,33.257115 C33.2306043,32.5766082 33.5708577,31.555848 33.5708577,30.648538 C33.5708577,30.3082846 33.7976608,30.0814815 34.1379142,30.0814815 C34.4781676,30.0814815 34.7049708,30.3082846 34.7049708,30.648538 C34.7049708,31.8961014 34.2512671,33.1436647 33.4574074,34.0509747 C33.2305068,34.164425 33.0037037,34.164425 32.8903509,34.164425 Z" id="Shape" fill="#FFCB5B"></path>
                <g id="Group" transform="translate(27.192982, 28.362573)" fill="#F6B545">
                    <path d="M7.5119883,0.131091618 C7.73879142,0.811598441 7.96569201,1.49210526 7.96569201,2.28596491 C7.96569201,5.46159844 5.4705653,7.95672515 2.29493177,7.95672515 C1.95467836,7.95672515 1.50107212,7.95672515 1.16081871,7.84327485 L1.16081871,7.95672515 C1.16081871,8.7505848 1.27426901,9.43109162 1.50107212,10.2250487 C1.72787524,10.2250487 2.06812865,10.2250487 2.29493177,10.2250487 C6.71812865,10.2250487 10.2340156,6.70916179 10.2340156,2.28596491 C10.2340156,1.49210526 10.1205653,0.811598441 9.89376218,0.0176413255 C9.66695906,0.0176413255 9.32670565,0.0176413255 9.09990253,0.0176413255 C8.53265107,0.0177387914 8.07904483,0.0177387914 7.5119883,0.131091618 Z" id="Shape"></path>
                    <circle id="Oval" cx="7.96559454" cy="9.09093567" r="7.93908382"></circle>
                </g>
                <g id="ruble-currency-sign" transform="translate(32.261209, 34.405458)" fill="#F19920">
                    <path d="M0.146239813,5.40926301 L1.16965369,5.40926301 L1.16965369,6.28657235 C1.16965369,6.32925751 1.18331048,6.36420008 1.21078798,6.39151354 C1.23818981,6.41900354 1.27322079,6.43274854 1.31589351,6.43274854 L2.0788323,6.43274854 C2.11842815,6.43274854 2.1526899,6.41900354 2.18163018,6.39151354 C2.21057045,6.36420008 2.22499645,6.3292449 2.22499645,6.28657235 L2.22499645,5.40926301 L4.53219842,5.40926301 C4.57478287,5.40926301 4.60982645,5.39569455 4.63729134,5.36820455 C4.66478145,5.34073977 4.67842562,5.30577198 4.67842562,5.26308682 L4.67842562,4.67826857 C4.67842562,4.63583561 4.66478145,4.60064084 4.63729134,4.57332738 C4.60990211,4.54583738 4.57478287,4.53209238 4.53219842,4.53209238 L2.22492079,4.53209238 L2.22492079,3.9929605 L3.77828849,3.9929605 C4.38742138,3.9929605 4.88457622,3.80735255 5.26997998,3.43560703 C5.65523242,3.06425242 5.84795322,2.5845519 5.84795322,1.99648025 C5.84795322,1.40879951 5.65523242,0.929086378 5.26997998,0.557353468 C4.88465188,0.185986251 4.38740877,0 3.77828849,0 L1.31581785,0 C1.27313252,0 1.2381772,0.0137323905 1.21071232,0.0410584604 C1.18331048,0.0685358515 1.16957803,0.103718009 1.16957803,0.146163579 L1.16957803,3.01995317 L0.146239813,3.01995317 C0.103567094,3.01995317 0.0685991709,3.03439172 0.0411342822,3.06331927 C0.0137450545,3.09225944 0,3.12652106 0,3.16610414 L0,3.8467717 C0,3.88945686 0.0136567835,3.92442464 0.0411342822,3.95188943 C0.068611781,3.97937943 0.103491433,3.99294789 0.146239813,3.99294789 L1.16965369,3.99294789 L1.16965369,4.53207977 L0.146239813,4.53207977 C0.103567094,4.53207977 0.0685991709,4.54582477 0.0411342822,4.57331477 C0.0137450545,4.60062823 0,4.63574734 0,4.67825596 L0,5.26307421 C0,5.30575937 0.0136567835,5.34072716 0.0411342822,5.36819194 C0.0685991709,5.39569455 0.103554484,5.40926301 0.146239813,5.40926301 Z M2.22492079,0.973234311 L3.6869154,0.973234311 C4.00973503,0.973234311 4.27010924,1.06762085 4.46815151,1.25645698 C4.66609291,1.44530573 4.76510774,1.69209784 4.76510774,1.99655591 C4.76510774,2.3011653 4.66609291,2.54803307 4.46815151,2.73665483 C4.27010924,2.9256549 4.00972242,3.02004144 3.6869154,3.02004144 L2.22492079,3.02004144 L2.22492079,0.973234311 Z" id="Shape"></path>
                </g>
                <path d="M35.158577,29.514425 C30.7353801,29.514425 27.2194932,33.0303119 27.2194932,37.4535088 C27.2194932,41.8767057 30.7353801,45.3925926 35.158577,45.3925926 C39.5817739,45.3925926 43.0976608,41.8767057 43.0976608,37.4535088 C43.0976608,33.0303119 39.5817739,29.514425 35.158577,29.514425 Z M35.158577,43.124269 C31.9829435,43.124269 29.4878168,40.6291423 29.4878168,37.4535088 C29.4878168,34.2778752 31.9829435,31.7827485 35.158577,31.7827485 C38.3342105,31.7827485 40.8293372,34.2778752 40.8293372,37.4535088 C40.8293372,40.6291423 38.3342105,43.124269 35.158577,43.124269 Z" id="Shape" fill="#FFCB5B"></path>
                <path d="M35.158577,45.2791423 C39.5817739,45.3925926 43.0976608,41.7632554 43.0976608,37.4535088 L42.9842105,37.4535088 C42.417154,37.4535088 41.9634503,37.9072125 41.8500975,38.474269 C41.6232943,40.0620858 40.8293372,41.5364522 39.6952242,42.5572125 C38.7879142,43.4645224 37.5403509,44.0315789 36.1793372,44.2584795 C35.6122807,44.2583821 35.158577,44.7119883 35.158577,45.2791423 Z" id="Shape" fill="#F6B545"></path>
                <path d="M35.158577,29.6278752 C30.7353801,29.514425 27.2194932,33.1437622 27.2194932,37.4535088 L27.3329435,37.4535088 C27.9,37.4535088 28.3537037,36.9998051 28.4670565,36.4327485 C28.6938596,34.8449318 29.4878168,33.3705653 30.6219298,32.3498051 C31.5292398,31.4424951 32.7768031,30.8754386 34.1378168,30.648538 C34.7049708,30.6486355 35.158577,30.1949318 35.158577,29.6278752 Z" id="Shape" fill="#FFE27A"></path>
                <path d="M30.2817739,38.2473684 C30.2817739,35.0717349 32.7769006,32.5766082 35.9525341,32.5766082 C37.3135478,32.5766082 38.5611111,33.0303119 39.5817739,33.9376218 C38.4476608,32.5766082 36.9731969,31.7827485 35.158577,31.7827485 C31.9829435,31.7827485 29.4878168,34.2778752 29.4878168,37.4535088 C29.4878168,39.2681287 30.2816764,40.7424951 31.5292398,41.7632554 C30.7353801,40.8559454 30.2817739,39.6083821 30.2817739,38.2473684 Z" id="Shape" fill="#F19920"></path>
                <path d="M38.5610136,40.9692982 C38.4475634,40.9692982 38.3342105,40.9692982 38.2207602,40.855848 C37.9939571,40.6290448 37.9939571,40.2887914 38.2207602,40.0619883 C38.9012671,39.3814815 39.2415205,38.3607212 39.2415205,37.4534113 C39.2415205,37.1131579 39.4683236,36.8863548 39.808577,36.8863548 C40.1488304,36.8863548 40.3756335,37.1131579 40.3756335,37.4534113 C40.3756335,38.7009747 39.9219298,39.948538 39.1280702,40.855848 C38.9012671,40.9692982 38.6744639,40.9692982 38.5610136,40.9692982 Z" id="Shape" fill="#FFCB5B"></path>
            </g>
            <g id="ruble-currency-sign" transform="translate(19.395712, 8.966862)" fill="#EADCCB">
                <path d="M0.282730306,10.4087334 L2.26133048,10.4087334 L2.26133048,12.0968892 C2.26133048,12.1790258 2.28773359,12.2462638 2.34085675,12.2988215 C2.39383364,12.3517189 2.46156019,12.3781676 2.54406078,12.3781676 L4.01907578,12.3781676 C4.09562775,12.3781676 4.16186714,12.3517189 4.21781834,12.2988215 C4.27376954,12.2462638 4.30165981,12.1790016 4.30165981,12.0968892 L4.30165981,10.4087334 L8.76225028,10.4087334 C8.84458021,10.4087334 8.91233114,10.3826244 8.96542993,10.3297269 C9.01857747,10.276878 9.04495621,10.2095915 9.04495621,10.1274549 L9.04495621,9.00212286 C9.04495621,8.92047155 9.01857747,8.85274829 8.96542993,8.80019057 C8.91247742,8.74729314 8.84458021,8.72084443 8.76225028,8.72084443 L4.30151353,8.72084443 L4.30151353,7.68342399 L7.30469108,7.68342399 C8.48234801,7.68342399 9.44351403,7.3262693 10.188628,6.6109408 C10.9334493,5.89636451 11.3060429,4.97330442 11.3060429,3.84171199 C11.3060429,2.71087178 10.9334493,1.78778742 10.188628,1.07248319 C9.4436603,0.357882634 8.48232363,0 7.30469108,0 L2.5439145,0 C2.46138953,0 2.39380926,0.0264244483 2.34071048,0.0790064314 C2.28773359,0.131879593 2.2611842,0.199578593 2.2611842,0.28125416 L2.2611842,5.811122 L0.282730306,5.811122 C0.200229715,5.811122 0.132625064,5.83890528 0.079526279,5.89456891 C0.026573772,5.95025679 0,6.01618446 0,6.0923519 L0,7.40212129 C0,7.4842579 0.0264031147,7.55154439 0.079526279,7.60439329 C0.132649443,7.65729072 0.200083437,7.68339972 0.282730306,7.68339972 L2.26133048,7.68339972 L2.26133048,8.72082017 L0.282730306,8.72082017 C0.200229715,8.72082017 0.132625064,8.74726888 0.079526279,8.8001663 C0.026573772,8.85272402 0,8.9203017 0,9.00209859 L0,10.1274307 C0,10.2095673 0.0264031147,10.2768538 0.079526279,10.3297027 C0.132625064,10.3826244 0.200205335,10.4087334 0.282730306,10.4087334 Z M4.30151353,1.87273875 L7.12803644,1.87273875 C7.75215439,1.87273875 8.25554452,2.05436134 8.63842625,2.41772783 C9.02111295,2.78111859 9.21254163,3.25600645 9.21254163,3.84185758 C9.21254163,4.42799989 9.02111295,4.90303334 8.63842625,5.26598733 C8.25554452,5.62966927 7.75213001,5.81129186 7.12803644,5.81129186 L4.30151353,5.81129186 L4.30151353,1.87273875 Z" id="Shape"></path>
            </g>
        </g>
    </g>
</svg>